<svg height="512pt" viewBox="0 0 512 512" width="512pt" xmlns="http://www.w3.org/2000/svg"><path d="m256.058594 0h-.316406c-87.945313.554688-161.234376 67.519531-169.699219 155.058594-4.132813 46.472656 6.347656 76.460937 27.132812 115.550781 6.429688 11.371094 13.777344 22.199219 21.964844 32.375 5.625 7.371094 10.925781 14.335937 15.644531 21.777344 10.640625 16.820312 17.351563 35.828125 19.625 55.601562-11.882812 6.953125-18.382812 20.398438-16.457031 34.027344 1.925781 13.632813 11.902344 24.746094 25.246094 28.132813v35.34375c.027343 11.707031 6.0625 22.582031 15.984375 28.800781.503906.339843 1.039062.625 1.605468.851562 5.035157 2.898438 10.734376 4.441407 16.542969 4.480469h85.335938c18.851562 0 34.132812-15.28125 34.132812-34.132812v-35.34375c13.40625-3.375 23.425781-14.546876 25.320313-28.242188 1.894531-13.695312-4.714844-27.167969-16.703125-34.054688 2.300781-19.726562 9.011719-38.679687 19.628906-55.464843 4.71875-7.441407 10.015625-14.40625 15.640625-21.777344 8.1875-10.175781 15.535156-21.003906 21.964844-32.375 20.777344-39.082031 31.265625-69.070313 27.144531-115.550781-8.476563-87.550782-81.78125-154.515625-169.738281-155.058594zm-55.261719 489.351562c-2.902344-3.121093-4.519531-7.222656-4.53125-11.484374v-34.132813h82.132813zm114.9375-11.484374c0 9.425781-7.640625 17.066406-17.066406 17.066406h-73.679688l87.09375-51.199219h3.652344zm8.53125-51.199219h-136.53125c-9.425781 0-17.066406-7.640625-17.066406-17.066407 0-9.425781 7.640625-17.066406 17.066406-17.066406h136.53125c9.425781 0 17.066406 7.640625 17.066406 17.066406 0 9.425782-7.640625 17.066407-17.066406 17.066407zm-102.398437-204.800781h-25.601563c-9.425781 0-17.066406-7.640626-17.066406-17.066407s7.640625-17.066406 17.066406-17.066406h8.535156c9.425781 0 17.066407 7.640625 17.066407 17.066406zm34.132812 17.066406h17.066406v136.53125h-34.132812v-136.53125zm127.554688 23.652344c-5.996094 10.558593-12.84375 20.605468-20.476563 30.046874-5.589844 7.339844-11.367187 14.925782-16.480469 22.988282-11.484375 18.152344-18.929687 38.5625-21.828125 59.84375h-34.636719v-136.53125h25.601563c18.851563 0 34.132813-15.28125 34.132813-34.132813 0-18.851562-15.28125-34.132812-34.132813-34.132812h-8.535156c-18.851563 0-34.132813 15.28125-34.132813 34.132812v17.066407h-34.132812v-17.066407c0-18.851562-15.28125-34.132812-34.132813-34.132812h-8.535156c-18.851563 0-34.132813 15.28125-34.132813 34.132812 0 18.851563 15.28125 34.132813 34.132813 34.132813h25.601563v136.53125h-34.832032c-2.902344-21.28125-10.347656-41.691406-21.839844-59.84375-5.117187-8.0625-10.886718-15.648438-16.476562-22.988282-7.632812-9.441406-14.480469-19.488281-20.480469-30.046874-19.675781-37-29.011719-63.554688-25.207031-106.015626 7.214844-79.039062 73.496094-139.542968 152.863281-139.542968 79.367188 0 145.644531 60.503906 152.859375 139.542968 3.78125 42.46875-5.519531 69.027344-25.199218 106.015626zm-93.421876-40.71875v-17.066407c0-9.425781 7.640626-17.066406 17.066407-17.066406h8.535156c9.425781 0 17.066406 7.640625 17.066406 17.066406s-7.640625 17.066407-17.066406 17.066407zm0 0"/><path d="m255.921875 34.132812c-70.066406 1.140626-128.324219 54.277344-135.882813 123.945313-.414062 4.695313 3.054688 8.835937 7.746094 9.253906h.761719c4.429687.015625 8.136719-3.363281 8.53125-7.777343 6.648437-60.90625 57.582031-107.347657 118.84375-108.355469 4.714844 0 8.535156-3.820313 8.535156-8.53125 0-4.714844-3.820312-8.535157-8.535156-8.535157zm0 0"/><path d="m0 170.667969c0 4.710937 3.820312 8.53125 8.535156 8.53125h42.664063c4.714843 0 8.535156-3.820313 8.535156-8.53125 0-4.714844-3.820313-8.535157-8.535156-8.535157h-42.664063c-4.714844 0-8.535156 3.820313-8.535156 8.535157zm0 0"/><path d="m74.375 265.675781-36.949219 21.335938c-2.660156 1.511719-4.308593 4.335937-4.3125 7.398437-.007812 3.0625 1.625 5.890625 4.28125 7.417969 2.65625 1.523437 5.925781 1.511719 8.566407-.039063l36.949218-21.332031c4.046875-2.371093 5.417969-7.566406 3.074219-11.628906s-7.53125-5.46875-11.609375-3.152344zm0 0"/><path d="m425.976562 268.800781c-2.355468 4.082031-.960937 9.300781 3.121094 11.65625l36.949219 21.332031c4.078125 2.320313 9.261719.910157 11.609375-3.152343 2.34375-4.058594.972656-9.253907-3.074219-11.625l-36.949219-21.335938c-4.082031-2.355469-9.300781-.957031-11.65625 3.125zm0 0"/><path d="m503.464844 162.132812h-42.664063c-4.714843 0-8.535156 3.820313-8.535156 8.535157 0 4.710937 3.820313 8.53125 8.535156 8.53125h42.664063c4.714844 0 8.535156-3.820313 8.535156-8.53125 0-4.714844-3.820312-8.535157-8.535156-8.535157zm0 0"/><path d="m477.695312 42.667969c-2.355468-4.082031-7.574218-5.480469-11.65625-3.125l-36.949218 21.332031c-2.660156 1.515625-4.308594 4.339844-4.316406 7.402344-.003907 3.0625 1.628906 5.890625 4.285156 7.417968 2.652344 1.523438 5.921875 1.511719 8.566406-.039062l36.949219-21.332031c4.078125-2.359375 5.476562-7.578125 3.121093-11.65625zm0 0"/><path d="m82.902344 60.875-36.949219-21.332031c-4.078125-2.316407-9.261719-.910157-11.609375 3.152343-2.34375 4.0625-.972656 9.253907 3.074219 11.628907l36.949219 21.332031c2.640624 1.550781 5.910156 1.5625 8.566406.039062 2.65625-1.527343 4.289062-4.355468 4.285156-7.417968-.007812-3.0625-1.65625-5.886719-4.316406-7.402344zm0 0"/></svg>